<?xml version="1.0" standalone="no"?>
<!DOCTYPE svg PUBLIC "-//W3C//DTD SVG 20010904//EN"
 "http://www.w3.org/TR/2001/REC-SVG-20010904/DTD/svg10.dtd">
<svg version="1.0" xmlns="http://www.w3.org/2000/svg"
 width="512.000000pt" height="512.000000pt" viewBox="0 0 512.000000 512.000000"
 preserveAspectRatio="xMidYMid meet">
<metadata>
Created by potrace 1.14, written by Peter Selinger 2001-2017
</metadata>
<g transform="translate(0.000000,512.000000) scale(0.100000,-0.100000)"
fill="#000000" stroke="none">
<path d="M598 3963 c-9 -2 -24 -16 -34 -31 -17 -25 -18 -99 -19 -1262 0 -724
3 -1240 8 -1247 5 -7 6 -13 3 -13 -4 0 4 -11 18 -23 l26 -24 -248 1 c-253 1
-294 -3 -325 -36 -37 -38 -29 -121 16 -159 21 -18 97 -18 2518 -19 l2496 0 26
26 c50 50 44 134 -11 170 -23 15 -59 17 -299 17 l-273 1 22 24 23 24 3 1249 2
1250 -29 30 -29 29 -1939 -1 c-1066 -1 -1946 -3 -1955 -6z m3809 -156 c1 -12
-2 -27 -8 -33 -5 -7 -6 -15 -1 -17 6 -5 10 -2255 3 -2277 0 -3 -833 -5 -1849
-5 l-1849 0 0 1176 0 1177 1851 0 1852 0 1 -21z m-1705 -2486 c15 -1 34 -8 43
-17 18 -19 15 -61 -6 -75 -8 -5 -89 -9 -181 -9 -138 0 -169 3 -182 16 -35 34
-10 81 44 86 30 3 89 2 282 -1z"/>
<path d="M2500 3589 c-25 -4 -92 -21 -150 -39 -93 -28 -141 -42 -190 -55 -8
-2 -15 -4 -15 -5 0 -1 -7 -3 -15 -5 -8 -2 -91 -27 -185 -55 -93 -29 -183 -56
-200 -60 -16 -4 -55 -16 -85 -25 -30 -10 -62 -19 -70 -20 -8 -2 -17 -4 -20 -5
-17 -3 -52 -43 -56 -64 -7 -39 38 -68 157 -100 57 -16 106 -32 109 -35 3 -3
16 -8 29 -9 14 -2 68 -17 120 -34 53 -16 103 -31 111 -33 8 -2 99 -29 201 -60
103 -30 204 -57 225 -59 22 -3 41 -5 44 -6 8 -3 91 0 153 6 62 6 82 11 442
124 127 40 244 76 260 80 17 5 40 12 52 15 l22 7 -1 -196 c0 -159 -3 -196 -14
-196 -11 0 -14 -17 -14 -70 0 -55 3 -70 15 -70 17 0 15 -31 -4 -54 -16 -19 -5
-56 17 -57 87 -8 121 10 101 54 -7 15 -16 24 -20 21 -13 -7 3 30 15 38 18 12
15 131 -4 145 -11 9 -15 31 -15 95 0 46 4 86 10 90 7 5 7 8 0 8 -13 0 -12 207
1 219 5 5 18 11 28 13 10 1 28 15 39 30 18 25 19 30 7 53 -8 14 -28 32 -44 40
-26 11 -378 119 -426 130 -8 2 -15 4 -15 5 0 1 -7 3 -15 5 -22 4 -132 36 -155
45 -11 5 -47 16 -80 25 -33 9 -78 23 -100 30 -117 38 -185 47 -265 34z"/>
<path d="M1882 2683 c0 -263 2 -276 50 -319 49 -45 171 -93 303 -119 241 -47
398 -52 600 -18 22 3 59 7 82 7 23 1 39 3 37 5 -2 3 35 15 83 27 136 33 222
73 223 101 0 6 6 13 13 16 9 3 12 65 11 270 0 147 -3 270 -6 273 -4 3 -39 -4
-78 -16 -40 -12 -81 -23 -90 -25 -10 -2 -37 -10 -61 -18 -49 -17 -120 -36
-132 -37 -4 0 -23 -6 -42 -14 -19 -8 -35 -12 -35 -9 0 3 -7 0 -15 -7 -8 -7
-15 -10 -15 -7 0 3 -21 -1 -47 -9 -133 -41 -307 -36 -418 10 -19 8 -38 15 -40
16 -19 1 -39 6 -55 12 -8 3 -31 10 -50 16 -19 5 -87 26 -150 46 -63 19 -127
38 -141 41 l-26 7 -1 -249z"/>
<path d="M3997 2444 c-3 -3 -71 -6 -151 -6 -109 -1 -146 -4 -146 -13 0 -17
-64 -73 -99 -87 -32 -13 -54 -18 -106 -22 -22 -2 -44 -4 -48 -5 -5 -1 -7 -7
-5 -13 6 -17 581 -19 615 -3 63 29 44 131 -27 140 -3 0 -10 3 -16 7 -6 4 -14
5 -17 2z"/>
<path d="M1075 2432 c-50 -11 -67 -87 -28 -124 l25 -23 337 0 337 -1 -23 46
c-12 25 -24 59 -26 75 l-4 30 -299 1 c-164 0 -308 -2 -319 -4z"/>
<path d="M1049 1981 c-54 -26 -48 -110 9 -132 18 -7 506 -11 1510 -11 1344 0
1485 2 1507 16 14 9 28 28 31 41 9 36 -14 84 -43 91 -13 4 -690 7 -1505 8
-1232 1 -1486 -1 -1509 -13z"/>
</g>
</svg>
